<svg aria-hidden="true" style="position: absolute; width: 0; height: 0; overflow: hidden;" version="1.1" xmlns="http://www.w3.org/2000/svg" xmlns:xlink="http://www.w3.org/1999/xlink">
<defs>
<symbol id="icon-menu" viewBox="0 0 32 32">
<path fill="#fafefc" style="fill: var(--color1, #fafefc)" d="M2.133 0.328h10.503c1.178 0 2.133 0.955 2.133 2.133v8.369c0 2.356-1.91 4.267-4.267 4.267h-8.369c-1.178 0-2.133-0.955-2.133-2.133v-10.503c0-1.178 0.955-2.133 2.133-2.133zM4.062 2.79c-0.884 0-1.6 0.716-1.6 1.6v6.646c0 0.884 0.716 1.6 1.6 1.6h4.513c2.062 0 3.733-1.671 3.733-3.733v-4.513c0-0.884-0.716-1.6-1.6-1.6h-6.646z"></path>
<path fill="#bdb8b8" style="fill: var(--color2, #bdb8b8)" d="M0.107 2.462c0-1.119 0.907-2.027 2.027-2.027v-0.213c-1.237 0-2.24 1.003-2.24 2.24h0.213zM0.107 12.964v-10.503h-0.213v10.503h0.213zM2.133 14.991c-1.119 0-2.027-0.907-2.027-2.027h-0.213c0 1.237 1.003 2.24 2.24 2.24v-0.213zM10.503 14.991h-8.369v0.213h8.369v-0.213zM14.663 10.831c0 2.297-1.863 4.16-4.16 4.16v0.213c2.415 0 4.373-1.958 4.373-4.373h-0.213zM14.663 2.462v8.369h0.213v-8.369h-0.213zM12.636 0.435c1.119 0 2.027 0.907 2.027 2.027h0.213c0-1.237-1.003-2.24-2.24-2.24v0.213zM2.133 0.435h10.503v-0.213h-10.503v0.213zM2.569 4.39c0-0.825 0.669-1.493 1.493-1.493v-0.213c-0.943 0-1.707 0.764-1.707 1.707h0.213zM2.569 11.036v-6.646h-0.213v6.646h0.213zM4.062 12.529c-0.825 0-1.493-0.669-1.493-1.493h-0.213c0 0.943 0.764 1.707 1.707 1.707v-0.213zM8.575 12.529h-4.513v0.213h4.513v-0.213zM12.201 8.903c0 2.003-1.624 3.627-3.627 3.627v0.213c2.121 0 3.84-1.719 3.84-3.84h-0.213zM12.201 4.39v4.513h0.213v-4.513h-0.213zM10.708 2.897c0.825 0 1.493 0.669 1.493 1.493h0.213c0-0.943-0.764-1.707-1.707-1.707v0.213zM4.062 2.897h6.646v-0.213h-6.646v0.213z"></path>
<path fill="#fafefc" style="fill: var(--color1, #fafefc)" d="M19.036 0.328h10.503c1.178 0 2.133 0.955 2.133 2.133v10.503c0 1.178-0.955 2.133-2.133 2.133h-8.369c-2.356 0-4.267-1.91-4.267-4.267v-8.369c0-1.178 0.955-2.133 2.133-2.133zM20.964 2.79c-0.884 0-1.6 0.716-1.6 1.6v4.513c0 2.062 1.671 3.733 3.733 3.733h4.513c0.884 0 1.6-0.716 1.6-1.6v-6.646c0-0.884-0.716-1.6-1.6-1.6h-6.646z"></path>
<path fill="#bdb8b8" style="fill: var(--color2, #bdb8b8)" d="M17.009 2.462c0-1.119 0.907-2.027 2.027-2.027v-0.213c-1.237 0-2.24 1.003-2.24 2.24h0.213zM17.009 10.831v-8.369h-0.213v8.369h0.213zM21.169 14.991c-2.297 0-4.16-1.863-4.16-4.16h-0.213c0 2.415 1.958 4.373 4.373 4.373v-0.213zM29.538 14.991h-8.369v0.213h8.369v-0.213zM31.565 12.964c0 1.119-0.907 2.027-2.027 2.027v0.213c1.237 0 2.24-1.003 2.24-2.24h-0.213zM31.565 2.462v10.503h0.213v-10.503h-0.213zM29.538 0.435c1.119 0 2.027 0.907 2.027 2.027h0.213c0-1.237-1.003-2.24-2.24-2.24v0.213zM19.036 0.435h10.503v-0.213h-10.502v0.213zM19.471 4.39c0-0.825 0.669-1.493 1.493-1.493v-0.213c-0.942 0-1.707 0.764-1.707 1.707h0.213zM19.471 8.903v-4.513h-0.213v4.513h0.213zM23.097 12.529c-2.003 0-3.627-1.624-3.627-3.627h-0.213c0 2.121 1.719 3.84 3.84 3.84v-0.213zM27.61 12.529h-4.513v0.213h4.513v-0.213zM29.104 11.036c0 0.825-0.669 1.493-1.493 1.493v0.213c0.942 0 1.707-0.764 1.707-1.707h-0.213zM29.104 4.39v6.646h0.213v-6.646h-0.213zM27.61 2.897c0.825 0 1.493 0.669 1.493 1.493h0.213c0-0.943-0.764-1.707-1.707-1.707v0.213zM20.964 2.897h6.646v-0.213h-6.646v0.213z"></path>
<path fill="#fafefc" style="fill: var(--color1, #fafefc)" d="M2.133 17.231h8.369c2.356 0 4.267 1.91 4.267 4.267v8.369c0 1.178-0.955 2.133-2.133 2.133h-10.503c-1.178 0-2.133-0.955-2.133-2.133v-10.502c0-1.178 0.955-2.133 2.133-2.133zM4.062 19.692c-0.884 0-1.6 0.716-1.6 1.6v6.646c0 0.884 0.716 1.6 1.6 1.6h6.646c0.884 0 1.6-0.716 1.6-1.6v-4.513c0-2.062-1.671-3.733-3.733-3.733h-4.513z"></path>
<path fill="#bdb8b8" style="fill: var(--color2, #bdb8b8)" d="M0.107 19.364c0-1.119 0.907-2.027 2.027-2.027v-0.213c-1.237 0-2.24 1.003-2.24 2.24h0.213zM0.107 29.867v-10.502h-0.213v10.502h0.213zM2.133 31.894c-1.119 0-2.027-0.907-2.027-2.027h-0.213c0 1.237 1.003 2.24 2.24 2.24v-0.213zM12.636 31.894h-10.503v0.213h10.503v-0.213zM14.663 29.867c0 1.119-0.907 2.027-2.027 2.027v0.213c1.237 0 2.24-1.003 2.24-2.24h-0.213zM14.663 21.498v8.369h0.213v-8.369h-0.213zM10.503 17.338c2.298 0 4.16 1.862 4.16 4.16h0.213c0-2.415-1.958-4.373-4.373-4.373v0.213zM2.133 17.338h8.369v-0.213h-8.369v0.213zM2.569 21.292c0-0.825 0.669-1.493 1.493-1.493v-0.213c-0.943 0-1.707 0.764-1.707 1.707h0.213zM2.569 27.939v-6.646h-0.213v6.646h0.213zM4.062 29.432c-0.825 0-1.493-0.669-1.493-1.493h-0.213c0 0.943 0.764 1.707 1.707 1.707v-0.213zM10.708 29.432h-6.646v0.213h6.646v-0.213zM12.201 27.939c0 0.825-0.669 1.493-1.493 1.493v0.213c0.943 0 1.707-0.764 1.707-1.707h-0.213zM12.201 23.426v4.513h0.213v-4.513h-0.213zM8.575 19.799c2.003 0 3.627 1.624 3.627 3.627h0.213c0-2.121-1.719-3.84-3.84-3.84v0.213zM4.062 19.799h4.513v-0.213h-4.513v0.213z"></path>
<path fill="#fafefc" style="fill: var(--color1, #fafefc)" d="M21.169 17.231h8.369c1.178 0 2.133 0.955 2.133 2.133v10.502c0 1.178-0.955 2.133-2.133 2.133h-10.502c-1.178 0-2.133-0.955-2.133-2.133v-8.369c0-2.356 1.91-4.267 4.267-4.267zM23.098 19.692c-2.062 0-3.733 1.671-3.733 3.733v4.513c0 0.884 0.716 1.6 1.6 1.6h6.646c0.884 0 1.6-0.716 1.6-1.6v-6.646c0-0.884-0.716-1.6-1.6-1.6h-4.513z"></path>
<path fill="#bdb8b8" style="fill: var(--color2, #bdb8b8)" d="M17.009 21.498c0-2.298 1.863-4.16 4.16-4.16v-0.213c-2.415 0-4.373 1.958-4.373 4.373h0.213zM17.009 29.867v-8.369h-0.213v8.369h0.213zM19.036 31.894c-1.119 0-2.027-0.907-2.027-2.027h-0.213c0 1.237 1.003 2.24 2.24 2.24v-0.213zM29.538 31.894h-10.502v0.213h10.502v-0.213zM31.565 29.867c0 1.119-0.907 2.027-2.027 2.027v0.213c1.237 0 2.24-1.003 2.24-2.24h-0.213zM31.565 19.364v10.503h0.213v-10.502h-0.213zM29.538 17.338c1.119 0 2.027 0.907 2.027 2.027h0.213c0-1.237-1.003-2.24-2.24-2.24v0.213zM21.169 17.338h8.369v-0.213h-8.369v0.213zM19.471 23.426c0-2.003 1.624-3.627 3.627-3.627v-0.213c-2.121 0-3.84 1.719-3.84 3.84h0.213zM19.471 27.939v-4.513h-0.213v4.513h0.213zM20.965 29.432c-0.825 0-1.493-0.669-1.493-1.493h-0.213c0 0.943 0.764 1.707 1.707 1.707v-0.213zM27.611 29.432h-6.646v0.213h6.646v-0.213zM29.104 27.939c0 0.825-0.669 1.493-1.493 1.493v0.213c0.942 0 1.707-0.764 1.707-1.707h-0.213zM29.104 21.292v6.646h0.213v-6.646h-0.213zM27.611 19.799c0.825 0 1.493 0.669 1.493 1.493h0.213c0-0.942-0.764-1.707-1.707-1.707v0.213zM23.098 19.799h4.513v-0.213h-4.513v0.213z"></path>
</symbol>
</defs>
</svg>
