<svg width="30" height="30" viewBox="0 0 30 30" fill="none" xmlns="http://www.w3.org/2000/svg">
<mask id="path-1-inside-1_11_2814" fill="white">
<path fill-rule="evenodd" clip-rule="evenodd" d="M2 0.307861C0.89543 0.307861 0 1.20329 0 2.30786V12.154C0 13.2586 0.895429 14.154 2 14.154H9.84615C12.0553 14.154 13.8462 12.3632 13.8462 10.154V2.30786C13.8462 1.20329 12.9507 0.307861 11.8462 0.307861H2ZM3.80811 2.61554C2.97968 2.61554 2.30811 3.28711 2.30811 4.11554V10.3463C2.30811 11.1747 2.97968 11.8463 3.8081 11.8463H8.03887C9.97187 11.8463 11.5389 10.2793 11.5389 8.34631V4.11554C11.5389 3.28711 10.8673 2.61554 10.0389 2.61554H3.80811Z"/>
</mask>
<path fill-rule="evenodd" clip-rule="evenodd" d="M2 0.307861C0.89543 0.307861 0 1.20329 0 2.30786V12.154C0 13.2586 0.895429 14.154 2 14.154H9.84615C12.0553 14.154 13.8462 12.3632 13.8462 10.154V2.30786C13.8462 1.20329 12.9507 0.307861 11.8462 0.307861H2ZM3.80811 2.61554C2.97968 2.61554 2.30811 3.28711 2.30811 4.11554V10.3463C2.30811 11.1747 2.97968 11.8463 3.8081 11.8463H8.03887C9.97187 11.8463 11.5389 10.2793 11.5389 8.34631V4.11554C11.5389 3.28711 10.8673 2.61554 10.0389 2.61554H3.80811Z" fill="#FAFEFC"/>
<path d="M0.1 2.30786C0.1 1.25852 0.950659 0.407861 2 0.407861V0.207861C0.840202 0.207861 -0.1 1.14806 -0.1 2.30786H0.1ZM0.1 12.154V2.30786H-0.1V12.154H0.1ZM2 14.054C0.950657 14.054 0.1 13.2034 0.1 12.154H-0.1C-0.1 13.3138 0.8402 14.254 2 14.254V14.054ZM9.84615 14.054H2V14.254H9.84615V14.054ZM13.7462 10.154C13.7462 12.3079 12.0001 14.054 9.84615 14.054V14.254C12.1105 14.254 13.9462 12.4184 13.9462 10.154H13.7462ZM13.7462 2.30786V10.154H13.9462V2.30786H13.7462ZM11.8462 0.407861C12.8955 0.407861 13.7462 1.25852 13.7462 2.30786H13.9462C13.9462 1.14806 13.006 0.207861 11.8462 0.207861V0.407861ZM2 0.407861H11.8462V0.207861H2V0.407861ZM2.40811 4.11554C2.40811 3.34234 3.03491 2.71554 3.80811 2.71554V2.51554C2.92445 2.51554 2.20811 3.23188 2.20811 4.11554H2.40811ZM2.40811 10.3463V4.11554H2.20811V10.3463H2.40811ZM3.8081 11.7463C3.03491 11.7463 2.40811 11.1195 2.40811 10.3463H2.20811C2.20811 11.23 2.92445 11.9463 3.8081 11.9463V11.7463ZM8.03887 11.7463H3.8081V11.9463H8.03887V11.7463ZM11.4389 8.34631C11.4389 10.2241 9.91664 11.7463 8.03887 11.7463V11.9463C10.0271 11.9463 11.6389 10.3345 11.6389 8.34631H11.4389ZM11.4389 4.11554V8.34631H11.6389V4.11554H11.4389ZM10.0389 2.71554C10.8121 2.71554 11.4389 3.34234 11.4389 4.11554H11.6389C11.6389 3.23188 10.9225 2.51554 10.0389 2.51554V2.71554ZM3.80811 2.71554H10.0389V2.51554H3.80811V2.71554Z" fill="#BDB8B8" mask="url(#path-1-inside-1_11_2814)"/>
<mask id="path-3-inside-2_11_2814" fill="white">
<path fill-rule="evenodd" clip-rule="evenodd" d="M17.8462 0.307861C16.7416 0.307861 15.8462 1.20329 15.8462 2.30786V10.154C15.8462 12.3632 17.637 14.154 19.8462 14.154H27.6923C28.7969 14.154 29.6923 13.2586 29.6923 12.154V2.30786C29.6923 1.20329 28.7969 0.307861 27.6923 0.307861H17.8462ZM19.6538 2.61554C18.8254 2.61554 18.1538 3.28711 18.1538 4.11554V8.34631C18.1538 10.2793 19.7208 11.8463 21.6538 11.8463H25.8846C26.713 11.8463 27.3846 11.1747 27.3846 10.3463V4.11554C27.3846 3.28711 26.713 2.61554 25.8846 2.61554H19.6538Z"/>
</mask>
<path fill-rule="evenodd" clip-rule="evenodd" d="M17.8462 0.307861C16.7416 0.307861 15.8462 1.20329 15.8462 2.30786V10.154C15.8462 12.3632 17.637 14.154 19.8462 14.154H27.6923C28.7969 14.154 29.6923 13.2586 29.6923 12.154V2.30786C29.6923 1.20329 28.7969 0.307861 27.6923 0.307861H17.8462ZM19.6538 2.61554C18.8254 2.61554 18.1538 3.28711 18.1538 4.11554V8.34631C18.1538 10.2793 19.7208 11.8463 21.6538 11.8463H25.8846C26.713 11.8463 27.3846 11.1747 27.3846 10.3463V4.11554C27.3846 3.28711 26.713 2.61554 25.8846 2.61554H19.6538Z" fill="#FAFEFC"/>
<path d="M15.9462 2.30786C15.9462 1.25852 16.7969 0.407861 17.8462 0.407861V0.207861C16.6864 0.207861 15.7462 1.14806 15.7462 2.30786H15.9462ZM15.9462 10.154V2.30786H15.7462V10.154H15.9462ZM19.8462 14.054C17.6923 14.054 15.9462 12.3079 15.9462 10.154H15.7462C15.7462 12.4184 17.5818 14.254 19.8462 14.254V14.054ZM27.6923 14.054H19.8462V14.254H27.6923V14.054ZM29.5923 12.154C29.5923 13.2034 28.7417 14.054 27.6923 14.054V14.254C28.8521 14.254 29.7923 13.3138 29.7923 12.154H29.5923ZM29.5923 2.30786V12.154H29.7923V2.30786H29.5923ZM27.6923 0.407861C28.7417 0.407861 29.5923 1.25852 29.5923 2.30786H29.7923C29.7923 1.14806 28.8521 0.207861 27.6923 0.207861V0.407861ZM17.8462 0.407861H27.6923V0.207861H17.8462V0.407861ZM18.2538 4.11554C18.2538 3.34234 18.8806 2.71554 19.6538 2.71554V2.51554C18.7702 2.51554 18.0538 3.23188 18.0538 4.11554H18.2538ZM18.2538 8.34631V4.11554H18.0538V8.34631H18.2538ZM21.6538 11.7463C19.776 11.7463 18.2538 10.2241 18.2538 8.34631H18.0538C18.0538 10.3345 19.6656 11.9463 21.6538 11.9463V11.7463ZM25.8846 11.7463H21.6538V11.9463H25.8846V11.7463ZM27.2846 10.3463C27.2846 11.1195 26.6578 11.7463 25.8846 11.7463V11.9463C26.7682 11.9463 27.4846 11.23 27.4846 10.3463H27.2846ZM27.2846 4.11554V10.3463H27.4846V4.11554H27.2846ZM25.8846 2.71554C26.6578 2.71554 27.2846 3.34234 27.2846 4.11554H27.4846C27.4846 3.23188 26.7682 2.51554 25.8846 2.51554V2.71554ZM19.6538 2.71554H25.8846V2.51554H19.6538V2.71554Z" fill="#BDB8B8" mask="url(#path-3-inside-2_11_2814)"/>
<mask id="path-5-inside-3_11_2814" fill="white">
<path fill-rule="evenodd" clip-rule="evenodd" d="M2 16.1541C0.89543 16.1541 0 17.0495 0 18.1541V28.0002C0 29.1048 0.895429 30.0002 2 30.0002H11.8462C12.9507 30.0002 13.8462 29.1048 13.8462 28.0002V20.1541C13.8462 17.9449 12.0553 16.1541 9.84615 16.1541H2ZM3.80811 18.4617C2.97968 18.4617 2.30811 19.1333 2.30811 19.9617V26.1925C2.30811 27.0209 2.97968 27.6925 3.8081 27.6925H10.0389C10.8673 27.6925 11.5389 27.0209 11.5389 26.1925V21.9617C11.5389 20.0287 9.97187 18.4617 8.03888 18.4617H3.80811Z"/>
</mask>
<path fill-rule="evenodd" clip-rule="evenodd" d="M2 16.1541C0.89543 16.1541 0 17.0495 0 18.1541V28.0002C0 29.1048 0.895429 30.0002 2 30.0002H11.8462C12.9507 30.0002 13.8462 29.1048 13.8462 28.0002V20.1541C13.8462 17.9449 12.0553 16.1541 9.84615 16.1541H2ZM3.80811 18.4617C2.97968 18.4617 2.30811 19.1333 2.30811 19.9617V26.1925C2.30811 27.0209 2.97968 27.6925 3.8081 27.6925H10.0389C10.8673 27.6925 11.5389 27.0209 11.5389 26.1925V21.9617C11.5389 20.0287 9.97187 18.4617 8.03888 18.4617H3.80811Z" fill="#FAFEFC"/>
<path d="M0.1 18.1541C0.1 17.1047 0.950659 16.2541 2 16.2541V16.0541C0.840202 16.0541 -0.1 16.9943 -0.1 18.1541H0.1ZM0.1 28.0002V18.1541H-0.1V28.0002H0.1ZM2 29.9002C0.950657 29.9002 0.1 29.0495 0.1 28.0002H-0.1C-0.1 29.16 0.8402 30.1002 2 30.1002V29.9002ZM11.8462 29.9002H2V30.1002H11.8462V29.9002ZM13.7462 28.0002C13.7462 29.0495 12.8955 29.9002 11.8462 29.9002V30.1002C13.0059 30.1002 13.9462 29.16 13.9462 28.0002H13.7462ZM13.7462 20.1541V28.0002H13.9462V20.1541H13.7462ZM9.84615 16.2541C12.0001 16.2541 13.7462 18.0001 13.7462 20.1541H13.9462C13.9462 17.8897 12.1105 16.0541 9.84615 16.0541V16.2541ZM2 16.2541H9.84615V16.0541H2V16.2541ZM2.40811 19.9617C2.40811 19.1885 3.03491 18.5617 3.80811 18.5617V18.3617C2.92445 18.3617 2.20811 19.0781 2.20811 19.9617H2.40811ZM2.40811 26.1925V19.9617H2.20811V26.1925H2.40811ZM3.8081 27.5925C3.03491 27.5925 2.40811 26.9657 2.40811 26.1925H2.20811C2.20811 27.0762 2.92445 27.7925 3.8081 27.7925V27.5925ZM10.0389 27.5925H3.8081V27.7925H10.0389V27.5925ZM11.4389 26.1925C11.4389 26.9657 10.8121 27.5925 10.0389 27.5925V27.7925C10.9225 27.7925 11.6389 27.0762 11.6389 26.1925H11.4389ZM11.4389 21.9617V26.1925H11.6389V21.9617H11.4389ZM8.03888 18.5617C9.91664 18.5617 11.4389 20.084 11.4389 21.9617H11.6389C11.6389 19.9735 10.0271 18.3617 8.03888 18.3617V18.5617ZM3.80811 18.5617H8.03888V18.3617H3.80811V18.5617Z" fill="#BDB8B8" mask="url(#path-5-inside-3_11_2814)"/>
<mask id="path-7-inside-4_11_2814" fill="white">
<path fill-rule="evenodd" clip-rule="evenodd" d="M19.8462 16.1541C17.6371 16.1541 15.8462 17.9449 15.8462 20.1541V28.0002C15.8462 29.1048 16.7416 30.0002 17.8462 30.0002H27.6923C28.7969 30.0002 29.6923 29.1048 29.6923 28.0002V18.1541C29.6923 17.0495 28.7969 16.1541 27.6923 16.1541H19.8462ZM21.6543 18.4617C19.7213 18.4617 18.1543 20.0287 18.1543 21.9617V26.1925C18.1543 27.0209 18.8259 27.6925 19.6543 27.6925H25.8851C26.7135 27.6925 27.3851 27.0209 27.3851 26.1925V19.9617C27.3851 19.1333 26.7135 18.4617 25.8851 18.4617H21.6543Z"/>
</mask>
<path fill-rule="evenodd" clip-rule="evenodd" d="M19.8462 16.1541C17.6371 16.1541 15.8462 17.9449 15.8462 20.1541V28.0002C15.8462 29.1048 16.7416 30.0002 17.8462 30.0002H27.6923C28.7969 30.0002 29.6923 29.1048 29.6923 28.0002V18.1541C29.6923 17.0495 28.7969 16.1541 27.6923 16.1541H19.8462ZM21.6543 18.4617C19.7213 18.4617 18.1543 20.0287 18.1543 21.9617V26.1925C18.1543 27.0209 18.8259 27.6925 19.6543 27.6925H25.8851C26.7135 27.6925 27.3851 27.0209 27.3851 26.1925V19.9617C27.3851 19.1333 26.7135 18.4617 25.8851 18.4617H21.6543Z" fill="#FAFEFC"/>
<path d="M15.9462 20.1541C15.9462 18.0001 17.6923 16.2541 19.8462 16.2541V16.0541C17.5818 16.0541 15.7462 17.8897 15.7462 20.1541H15.9462ZM15.9462 28.0002V20.1541H15.7462V28.0002H15.9462ZM17.8462 29.9002C16.7968 29.9002 15.9462 29.0495 15.9462 28.0002H15.7462C15.7462 29.16 16.6864 30.1002 17.8462 30.1002V29.9002ZM27.6923 29.9002H17.8462V30.1002H27.6923V29.9002ZM29.5923 28.0002C29.5923 29.0495 28.7417 29.9002 27.6923 29.9002V30.1002C28.8521 30.1002 29.7923 29.16 29.7923 28.0002H29.5923ZM29.5923 18.1541V28.0002H29.7923V18.1541H29.5923ZM27.6923 16.2541C28.7417 16.2541 29.5923 17.1047 29.5923 18.1541H29.7923C29.7923 16.9943 28.8521 16.0541 27.6923 16.0541V16.2541ZM19.8462 16.2541H27.6923V16.0541H19.8462V16.2541ZM18.2543 21.9617C18.2543 20.084 19.7765 18.5617 21.6543 18.5617V18.3617C19.6661 18.3617 18.0543 19.9735 18.0543 21.9617H18.2543ZM18.2543 26.1925V21.9617H18.0543V26.1925H18.2543ZM19.6543 27.5925C18.8811 27.5925 18.2543 26.9657 18.2543 26.1925H18.0543C18.0543 27.0762 18.7706 27.7925 19.6543 27.7925V27.5925ZM25.8851 27.5925H19.6543V27.7925H25.8851V27.5925ZM27.2851 26.1925C27.2851 26.9657 26.6583 27.5925 25.8851 27.5925V27.7925C26.7687 27.7925 27.4851 27.0762 27.4851 26.1925H27.2851ZM27.2851 19.9617V26.1925H27.4851V19.9617H27.2851ZM25.8851 18.5617C26.6583 18.5617 27.2851 19.1885 27.2851 19.9617H27.4851C27.4851 19.0781 26.7687 18.3617 25.8851 18.3617V18.5617ZM21.6543 18.5617H25.8851V18.3617H21.6543V18.5617Z" fill="#BDB8B8" mask="url(#path-7-inside-4_11_2814)"/>
</svg>
